<svg xmlns="http://www.w3.org/2000/svg" viewBox="0 0 1920 421.704">
  <defs>
    <style>
      .cls-1 {
        fill: #f9f7f4;
      }
    </style>
  </defs>
  <title>資產 3</title>
  <g id="圖層_2" data-name="圖層 2">
    <g id="圖層_1-2" data-name="圖層 1">
      <path class="cls-1" d="M0,412.015q16.752.04,33.5.078a57.793,57.793,0,0,1,8.464.27,6.311,6.311,0,0,0,1.206,0,3.013,3.013,0,0,0,2.6-4.094,12.832,12.832,0,0,0-1.679-2.73q-11.007-13.678-22.06-27.319a7.8,7.8,0,0,1-.9-1.33,3.211,3.211,0,0,1-.123-2.731c.147-.38.6-.7.919-.572,2.349,1,4.736,1.92,7.023,3.045a13.045,13.045,0,0,1,2.446,2.056,2.151,2.151,0,0,0,3.205-.244c1.08-1.175,1.44-2.468.623-3.673a13.838,13.838,0,0,1-1.95-6.084,53.062,53.062,0,0,0-1.964-7.4c-.761-2.577-1.59-5.137-2.278-7.733a20.757,20.757,0,0,1-.089-11.161,11.571,11.571,0,0,0-.025-4.8c-.319-2.4-.7-4.793-.893-7.2a27.017,27.017,0,0,1,.123-4.421,7.373,7.373,0,0,1,2.809-5.187,28.319,28.319,0,0,1,3.971-2.746c2.1-1.19,4.3-2.221,6.457-3.317.839-.426,1.709-.8,2.516-1.276a3.7,3.7,0,0,0,1.7-2.171.879.879,0,0,0-.079-.73,11.335,11.335,0,0,0-1.578-1.223c-2.033-1.308-4.089-2.58-6.115-3.9-.141-.092-.142-.446-.142-.679,0-.089.171-.206.287-.263a2.519,2.519,0,0,1,.746-.291c2.935-.365,5.865-.8,8.811-1.045a145.91,145.91,0,0,1,23.789.039c4.959.393,9.892,1.066,14.8,1.926,5.429.953,10.826,2.053,16.173,3.406a17.6,17.6,0,0,0,4.388.566,65.988,65.988,0,0,1,15.172,1.849,128.479,128.479,0,0,1,17.268,5.523c5.4,2.067,10.78,4.174,16.161,6.283,1,.392,1.962.878,2.941,1.324.489.223.963.485,1.465.673a4.108,4.108,0,0,0,5.28-1.685,14.563,14.563,0,0,0,2.4-5.068,7.548,7.548,0,0,1,1.937-3.93,2.868,2.868,0,0,1,.992-.654.725.725,0,0,1,.674.208,4.151,4.151,0,0,1,.433,1.518,5.711,5.711,0,0,1-1.188,3.365q-1.358,2-2.646,4.048a13.709,13.709,0,0,0-.943,1.781,3.9,3.9,0,0,0,1.405,4.98,14.041,14.041,0,0,0,1.735,1.022,13.312,13.312,0,0,1,3.348,2.217,4.062,4.062,0,0,0,3.4.917,6.913,6.913,0,0,0,5.618-4.077,3.786,3.786,0,0,0,.328-1.151,5.8,5.8,0,0,0,.027-1.208c-.361-5.917-.208-11.838-.079-17.756a106.755,106.755,0,0,0-.69-14.906c-.269-2.268-.725-4.514-1.133-6.763a8.607,8.607,0,0,1,.115-3.6,5.528,5.528,0,0,1,3.92-4.224,12.417,12.417,0,0,1,5.974-.527c1.722.3,3.471.456,5.185.793a9.758,9.758,0,0,0,4.78-.257,22.653,22.653,0,0,1,2.734-.7,8.06,8.06,0,0,1,8.457,3.43,8.146,8.146,0,0,1,.652,1.019,18.546,18.546,0,0,0,6.645,6.871,17.715,17.715,0,0,1,2.317,1.607,19.57,19.57,0,0,0,6.756,4.271,6.687,6.687,0,0,1,3.385,2.776,7.223,7.223,0,0,0,2.995,2.6c2.4,1.208,4.659,2.661,7.345,3.259a9.071,9.071,0,0,1,3.928,2,10.479,10.479,0,0,0,4.7,2.2c2.882.656,5.753,1.369,8.651,1.943a44.451,44.451,0,0,1,10.757,3.325,6.7,6.7,0,0,0,3.118.675q7.466-.168,14.932-.282A4.492,4.492,0,0,0,291.5,313.2a15.2,15.2,0,0,1,8.624-4.878c1.965-.441,3.955-.784,5.945-1.1,1.625-.26,1.985.225,1.37,1.695-.153.366-.324.726-.451,1.1a.836.836,0,0,0,.6.9,5.635,5.635,0,0,0,.791.122,15.481,15.481,0,0,0,2.4-.2c1.446-.3,2.873-.693,4.3-1.074a36.865,36.865,0,0,1,6.307-1.314,19.453,19.453,0,0,0,7.269-2.3,33.248,33.248,0,0,1,9.418-3.46,5.092,5.092,0,0,0,2.548-1.133,14.13,14.13,0,0,1,1.672-1.121c1.7-1.112,3.919-1.021,5.537-2.318a19.8,19.8,0,0,1,5.306-2.85,13.963,13.963,0,0,0,2.492-1.28,14.217,14.217,0,0,1,5.937-2.676,9.89,9.89,0,0,0,1-4.155c.105-2.418.2-4.839.193-7.259-.008-2.96-.172-5.919-.178-8.878,0-2.42.112-4.841.2-7.261a6.937,6.937,0,0,1,.237-1.591,1.43,1.43,0,0,1,2.487-.678,6.828,6.828,0,0,1,.624,1.027,1.786,1.786,0,0,0,1.9,1.163c5.589-.443,4.613-.088,8.106-3.54q4.737-4.683,9.423-9.416c1.223-1.232,2.64-2.319,3.2-4.08a1.182,1.182,0,0,1,.487-.626,6.041,6.041,0,0,0,2.515-3.5c1.208-3.069,3.768-4.166,6.811-3.773a30.947,30.947,0,0,1,3.959.766,26.678,26.678,0,0,0,5.589.738,88.485,88.485,0,0,0,15.308-.569,10.546,10.546,0,0,1,3.61-.022,2.922,2.922,0,0,1,2.347,2.461c.1,1.068.14,2.146.138,3.22q-.022,15.138-.067,30.276c0,1.076,0,2.154.057,3.228a8.816,8.816,0,0,0,1.3,4.194c.358.582.779,1.2,1.452,1.327a4.982,4.982,0,0,1,2.616,1.746c4.846,4.858,9.756,9.653,14.569,14.544a17.922,17.922,0,0,0,5.258,3.665c1.006.472,1.647.473,1.888-1.136a31.435,31.435,0,0,0,.35-3.61,99.3,99.3,0,0,0-.276-12.1,145.736,145.736,0,0,1-.39-16.134,26.238,26.238,0,0,1,.7-5.6,8.457,8.457,0,0,1,.312-1.167,3.86,3.86,0,0,1,3.216-2.711,43.6,43.6,0,0,1,4.426-.23c5.112-.027,10.226.034,15.338-.026,5.516-.066,11.031-.223,16.545-.359a7.461,7.461,0,0,0,1.982-.26,1.21,1.21,0,0,0,.721-.839,32.5,32.5,0,0,0,0-3.613c-.077-1.611-.263-3.217-.334-4.828a14.873,14.873,0,0,1,1.39-7.057,7.592,7.592,0,0,0,.863-2.666c.256-3.353.593-6.7.825-10.055a31.219,31.219,0,0,0,.014-4.432,62.507,62.507,0,0,1,3.883-26.143c.138-.379.226-.778.386-1.147a75.911,75.911,0,0,0,3.745-12.335c.474-1.958,1-3.908,1.594-5.831a21.98,21.98,0,0,1,4.7-8.379,68.119,68.119,0,0,0,5.727-7.8c1.657-2.45,3.315-4.908,5.127-7.241a21.3,21.3,0,0,1,7.391-6.142,1.887,1.887,0,0,1,2.217.366c.1.093.212.168.3.268a2.974,2.974,0,0,1,.5.626,3.807,3.807,0,0,0,2.367,2.015,2.847,2.847,0,0,1,1.879,3.211,4.254,4.254,0,0,1-.161.791,6.233,6.233,0,0,0,.6,4.307c.39.855.816,1.7,1.287,2.512a7.757,7.757,0,0,1,.915,6.211,2.455,2.455,0,0,0,.035.769c2.916,2.085,2.855,2.1,3.446,5.438.842,4.766,1.708,9.531,2.716,14.263a11.823,11.823,0,0,1-.151,6.741c-.229.625-.2,1.345-.44,1.965a2.371,2.371,0,0,0,1.073,3.1,7.865,7.865,0,0,1,3.009,6.341c.076,1.476.007,2.959,0,4.439a21.188,21.188,0,0,0,.487,5.207,15.772,15.772,0,0,1,.348,3.194,77.458,77.458,0,0,1-1.171,15.667,2.753,2.753,0,0,0,.81,2.561,31.5,31.5,0,0,0,4.869,4.223,14.993,14.993,0,0,0,11.068,2.763c1.192-.19,2.408-.228,3.614-.337a8.051,8.051,0,0,0,3.076-.909,3.927,3.927,0,0,0,2.177-3.191c.074-.665.048-1.342.064-2.014.108-4.573.233-9.145.318-13.718.075-4.034.085-8.07.159-12.1.151-8.206.231-16.415.517-24.617s.787-16.395,1.194-24.591c.013-.269.035-.537.047-.806q.565-12.3,1.134-24.6c.185-3.9.424-7.792.6-11.689a3.9,3.9,0,0,1,1.106-2.518,29.75,29.75,0,0,1,16.957-9.422,25.088,25.088,0,0,1,13.476,1.274c1.9.679,3.753,1.482,5.581,2.33a82.686,82.686,0,0,0,11.162,4.634,5.066,5.066,0,0,1,.747.3,3.859,3.859,0,0,1,2.239,3.556,2.959,2.959,0,0,1-.054.8,41.068,41.068,0,0,0-.47,7.238c-.13,3.225-.358,6.447-.465,9.673-.21,6.32-.436,12.64-.521,18.962a81.744,81.744,0,0,0,1.109,13.661,138.974,138.974,0,0,1,1.315,20.119c.066,7.266.087,14.532.151,21.8.015,1.614.114,3.228.208,4.839a7.882,7.882,0,0,0,.273,1.581,1.593,1.593,0,0,0,1.07,1.114,5.518,5.518,0,0,0,1.165.3,63.82,63.82,0,0,0,13.3-.026,7.64,7.64,0,0,0,1.184-.238,2.009,2.009,0,0,0,1.673-1.536c.471-2.235,1.089-4.451,1.39-6.708a91.281,91.281,0,0,0,.981-12.464c-.021-4.847-.176-9.677-.637-14.509-.932-9.786-1.116-19.608-1.159-29.433q-.043-9.89-.18-19.778c-.045-2.959-.23-5.915-.349-8.872-.033-.807-.067-1.613-.085-2.42a5.11,5.11,0,0,1,1.165-3.358c.663-.844,1.322-1.694,1.95-2.565a12.816,12.816,0,0,1,5.623-4.453,47.466,47.466,0,0,1,4.97-1.643c1.42-.4,2.884-.65,4.32-1a5.273,5.273,0,0,0,3.395-1.977,3.717,3.717,0,0,1,1.629-1.124,33.207,33.207,0,0,1,3.446-1.132,1.694,1.694,0,0,1,1.16.013,6.912,6.912,0,0,0,3.149.5,26.909,26.909,0,0,1,11.866,3.565,71.226,71.226,0,0,1,9.205,6.532,5.93,5.93,0,0,1,2.269,4.124,13.214,13.214,0,0,1,.151,2.41c-.393,4.838-.2,9.684-.239,14.526q-.194,21.8-.306,43.6c-.024,6.189.068,12.379.191,18.567.07,3.5.31,6.988.476,10.482.032.672.095,1.343.118,2.015.351,10.489.958,20.968.983,31.469.02,9.015.185,18.03.65,27.035.048.938.125,1.876.258,2.8.03.213.331.4.535.567a.738.738,0,0,0,.386.1c5.9.415,11.8.87,17.732.8a44.461,44.461,0,0,0,8.406-.939,20.8,20.8,0,0,0,2.683-.847,1.313,1.313,0,0,0,.85-1.259,9.705,9.705,0,0,0-.131-2.4c-.281-1.312-.7-2.594-1.069-3.887-.295-1.035-.671-2.053-.882-3.1-.548-2.718-.533-5.383,1.291-7.694a5.1,5.1,0,0,0,.96-3.411c-.017-1.883-.053-3.766-.06-5.65a11.127,11.127,0,0,1,.793-4.335c1.326-3.225,4.026-4.936,7.385-4.136,6.23,1.482,12.538,1.437,18.862,1.41q5.853-.024,11.706-.033a14.945,14.945,0,0,1,5.54.935,7.585,7.585,0,0,0,6.6-.151,1.662,1.662,0,0,1,2.277,1.035c.268.76.492,1.535.7,2.313a20.33,20.33,0,0,0,.58,2.345,15.85,15.85,0,0,1,1.153,6.7,3.887,3.887,0,0,0,.032.4,1.4,1.4,0,0,0,1.014,1.118,39.49,39.49,0,0,0,4,.466c4.034.118,8.072.211,12.107.2,5.517-.018,11.033-.149,16.549-.212a3.756,3.756,0,0,0,2.861-1.251,2.265,2.265,0,0,0,.7-1.406q.084-1.611.091-3.226.084-16.55.157-33.1c.042-8.208.122-16.415.135-24.623.01-6.727-.044-13.455-.092-20.183a18.316,18.316,0,0,1,.5-4.8,4.151,4.151,0,0,1,3.673-3.268,30.983,30.983,0,0,1,4.429-.156c6.189.049,12.379.187,18.568.183,7.939-.006,15.877-.123,23.816-.175,1.478-.01,2.964-.019,4.433.111a3.75,3.75,0,0,1,3.458,2.93,11.207,11.207,0,0,1,.393,2.777c.056,2.421.027,4.844.026,7.266q-.016,54.093-.033,108.187c0,2.961.031,5.921.063,8.881a17.73,17.73,0,0,0,.723,4.774,5.594,5.594,0,0,0,4.4,4.227,14.285,14.285,0,0,0,4.807.322c2.671-.3,5.331-.7,8-1.03,1.2-.15,2.4-.265,3.611-.353a11.836,11.836,0,0,1,6.271,1.152c.72.359,1.486.629,2.239.918a9.587,9.587,0,0,0,3.95.661,3.622,3.622,0,0,0,3.269-2.013,9.77,9.77,0,0,0,.852-2.247,27.013,27.013,0,0,0,.656-5.6c.026-3.633.064-7.266.147-10.9q.5-21.591,1.034-43.18c.181-6.859.44-13.717.737-20.572.349-8.065.724-16.129,1.193-24.187a42.053,42.053,0,0,0-1.64-13.554c-.457-1.685-1.024-3.343-1.6-4.991-1.65-4.693-3.341-9.371-5-14.062a22.241,22.241,0,0,1-.779-2.711,4.564,4.564,0,0,1,1.9-4.958,12.34,12.34,0,0,1,2.1-1.186,10.789,10.789,0,0,1,1.9-.656c2.554-.643,3.735-2.463,4.223-4.875a23.611,23.611,0,0,0,.407-7.225c-.257-2.407-.436-4.823-.629-7.237a80.3,80.3,0,0,1-.119-10.487c.136-2.687.186-5.38.334-8.066a7.877,7.877,0,0,0-1.778-6.016,4.013,4.013,0,0,1-.782-3.774c.623-3.029,1.171-6.073,1.782-9.1a158.643,158.643,0,0,1,5.806-22.225c.046-.127.1-.25.145-.377a22.842,22.842,0,0,0,1.319-7.91c-.044-7.535.013-15.071.012-22.606,0-12.245-.092-24.491.008-36.735a42.826,42.826,0,0,0-1.979-13.5c-.163-.512-.329-1.024-.464-1.544A1.33,1.33,0,0,1,942.6.35,10.239,10.239,0,0,1,944.988,0a10.757,10.757,0,0,1,4.018.71,4.477,4.477,0,0,1-.015,1.146c-.353,1.3-.815,2.564-1.149,3.866a53.544,53.544,0,0,0-1.419,12c-.052,2.015,0,4.039.124,6.051.278,4.437.266,8.872.208,13.315-.072,5.515.027,11.032,0,16.547-.023,4.305.022,8.618-.236,12.911a80.035,80.035,0,0,0,1.7,20.851,155.708,155.708,0,0,0,5.608,19.358c.567,1.653,1.2,3.286,1.714,4.956a11.654,11.654,0,0,1,0,7.518,52.17,52.17,0,0,0-2.487,20.693c.282,4.7.69,9.392.99,14.091.119,1.878.092,3.765.143,5.647a23.59,23.59,0,0,0,.122,2.411,2.425,2.425,0,0,0,1.748,2.018,8.99,8.99,0,0,0,1.182.236c.919.191,1.856.328,2.753.6,2.767.827,3.885,2.627,3.372,5.524a15.019,15.019,0,0,1-.934,3.07,30.792,30.792,0,0,1-1.489,2.859,53.624,53.624,0,0,0-5.984,19.544,131.652,131.652,0,0,0-.385,20.557c.167,4.3.345,8.6.486,12.906q.694,21.18,1.364,42.361c.013.4.033.806.045,1.21q.6,20.779,1.2,41.559a14.524,14.524,0,0,0,.489,3.989,4.147,4.147,0,0,0,1.536,2.309,19.662,19.662,0,0,0,5.4,2.658,4.084,4.084,0,0,0,2.763-.149,2.9,2.9,0,0,0,1.922-2.387,10.917,10.917,0,0,0,.1-1.608q-.056-23.211-.122-46.422c0-1.076-.026-2.154.017-3.228a9,9,0,0,1,.26-1.994,4.1,4.1,0,0,1,3.337-3.131,10.5,10.5,0,0,1,2.811-.138c5.512.431,11.026.215,16.54.115,2.825-.052,5.651-.031,8.475-.113a10.569,10.569,0,0,0,2.773-.439,3.893,3.893,0,0,0,2.878-3.09,44.7,44.7,0,0,0,.627-5.6c.11-2.283.021-4.574.061-6.861.035-2.018.075-4.038.219-6.049a12.029,12.029,0,0,1,.605-2.737,4.437,4.437,0,0,1,3.073-2.941,10.807,10.807,0,0,1,3.159-.588c2.018-.046,4.036-.108,6.053-.106,9.15.01,18.3.059,27.45.053,3.229,0,6.457-.146,9.686-.171a34.2,34.2,0,0,1,4.425.192,4.213,4.213,0,0,1,3.568,2.886,8.908,8.908,0,0,1,.656,3.142c.009,1.211.027,2.422.025,3.633q-.052,26.24-.1,52.478-.014,39.966.038,79.93c0,1.48,0,2.961.082,4.438a8.328,8.328,0,0,0,3.767,6.792c.887.6,1.784,1.2,2.7,1.761a1.592,1.592,0,0,0,1.824-.411c.4-.691.712-1.439,1.122-2.126a2.782,2.782,0,0,1,2.279-1.46,12.534,12.534,0,0,1,3.606.258c2.889.639,5.8,1.127,8.74,1.5a123.648,123.648,0,0,0,20.121,1.179c5.912-.212,11.832-.4,17.714-1.156,2.8-.358,5.609-.667,8.422-.9a40.185,40.185,0,0,1,10.067.213,163.186,163.186,0,0,0,31.777,1.807c1.745-.049,3.494.037,5.242.06a5.5,5.5,0,0,0,2.742-.511,2.126,2.126,0,0,0,1.113-1.987,7.736,7.736,0,0,0-.369-1.558c-.387-1-.867-1.968-1.264-2.966-.61-1.534.186-2.624,1.917-2.62.806,0,1.612.073,2.416.131,1.208.086,2.416.272,3.622.263a37.945,37.945,0,0,0,5.227-.283,7.688,7.688,0,0,0,5.173-2.853,3.166,3.166,0,0,0,.466-3.75,26.141,26.141,0,0,0-2.2-3.359,45.4,45.4,0,0,1-5.362-7.55,24.492,24.492,0,0,0-2.132-2.931c-.711-.979-1.461-1.934-2.089-2.964a4.753,4.753,0,0,1-.468-3.889,2.169,2.169,0,0,1,2.484-1.528,13.445,13.445,0,0,1,1.9.67,9.843,9.843,0,0,0,5.932.6,5.435,5.435,0,0,0,5.034-4.984c.13-.8.116-1.614.25-2.408a20.842,20.842,0,0,1,.684-3.147,3.445,3.445,0,0,1,2.9-2.487,7.24,7.24,0,0,1,2.391,0c1.839.384,3.662.858,5.465,1.387a12.352,12.352,0,0,0,4.785.467,3.573,3.573,0,0,0,2.69-1.589,6.639,6.639,0,0,0,1-2.177,36.286,36.286,0,0,0,.674-4.379c.117-1.2.088-2.42.092-3.63q.113-30.075.218-60.148c.008-2.153.019-4.306.05-6.459a24.258,24.258,0,0,0-.562-5.607c-.29-1.31-.441-2.651-.65-3.978a16.933,16.933,0,0,1,.568-7.977,11.047,11.047,0,0,0,.472-3.577c-.045-6.189-.1-12.379-.109-18.569a27.323,27.323,0,0,0-.49-4.395,3.318,3.318,0,0,1,2.672-3.911,10.488,10.488,0,0,1,2.39-.3c2.421-.04,4.844-.023,7.266-.023q14.936,0,29.872,0c1.211,0,2.425-.016,3.631.063a8.623,8.623,0,0,1,1.956.424,3.143,3.143,0,0,1,2.257,2.609,23.62,23.62,0,0,1,.228,3.611c.076,7.131.11,14.263.191,21.394.11,9.687.3,19.372.163,29.062-.109,7.944-.522,15.866-1.386,23.762a11.393,11.393,0,0,0,.465,4.371,3.236,3.236,0,0,0,3.742,2.325c1.19-.158,2.373-.806,3.52-.72,1.185.09,2.377.357,3.59.36q8.679.016,17.358.038a9.672,9.672,0,0,0,3.948-.6,7.7,7.7,0,0,1,5.151-.112,10.18,10.18,0,0,0,1.516.532,71.841,71.841,0,0,0,10.477.112,2.029,2.029,0,0,0,.778-.2,8.538,8.538,0,0,1,7.04-.051,6.224,6.224,0,0,0,3.973,0c.515-.152,1.013-.37,1.533-.5a11.723,11.723,0,0,1,1.981-.367,8.088,8.088,0,0,1,2,.106,3.638,3.638,0,0,1,2.986,3.351c.071,1.207.057,2.421.057,3.631q.006,17.36.009,34.718c0,1.34.084,2.681.154,4.021a.93.93,0,0,0,1.211.7,18.278,18.278,0,0,0,6.783-4.249,13.225,13.225,0,0,0,3.886-9.453,4.656,4.656,0,0,0-2.2-4.09,27.483,27.483,0,0,0-3.57-1.854,9.569,9.569,0,0,1-3.038-1.933.86.86,0,0,1,.039-1.365,6.3,6.3,0,0,1,.691-.416,108.923,108.923,0,0,0,12.51-6.519c2.8-1.6,5.631-3.157,8.512-4.608a59.721,59.721,0,0,1,5.571-2.338A34.168,34.168,0,0,1,1388.975,309c.537-.026,1.077-.007,1.614.016a4.684,4.684,0,0,0,4.172-2,12.651,12.651,0,0,1,4.065-3.844,5.812,5.812,0,0,0,1.845-2.081,13.662,13.662,0,0,0,1.788-5.316c.126-.8.151-1.607.243-2.409a43.383,43.383,0,0,1,1.893-9.058,98.93,98.93,0,0,0,3.608-14.883c1.27-7.286,2.505-14.577,3.748-21.866a23.48,23.48,0,0,0-.013-7.237c-.186-1.331-.321-2.676-.6-3.988-.774-3.589-.5-7.236-.679-10.858a6.8,6.8,0,0,1,.042-.805,3.035,3.035,0,0,1,1.345-2.368c.657-.457,1.374-.826,2.164-1.293.127-.893.31-1.811.381-2.738.606-7.914,1.151-15.832,1.805-23.742.265-3.214.761-6.41,1.137-9.615.36-3.073.819-6.139,1.022-9.223.4-6.041.7-12.089.943-18.138.281-6.861.83-13.7,1.738-20.5.605-4.531,1.288-9.052,1.965-13.574a22.919,22.919,0,0,0-.627-10.382c-.121-.385-.294-.754-.4-1.144a7.035,7.035,0,0,1,.232-4.354,13.673,13.673,0,0,1,2.448-4.148c.7-.814,1.433-1.593,2.115-2.347a9.28,9.28,0,0,0,.074-1.292c-.537-6.176-.524-12.364-.455-18.556.084-7.668.125-15.337.194-23.006.006-.671.054-1.343.126-2.01a2.05,2.05,0,0,1,1.68-1.526A2.08,2.08,0,0,1,1430.7,56.2c.108.932.173,1.873.2,2.812.1,3.9.19,7.8.246,11.7.094,6.457.227,12.915.2,19.373-.01,2.817-.328,5.637-.584,8.448a5.986,5.986,0,0,0,.818,3.843,17.309,17.309,0,0,1,2.431,5.939,9.986,9.986,0,0,1-.7,6.7,7.04,7.04,0,0,0,.129,7.281,38.1,38.1,0,0,1,1.676,3.65,5.13,5.13,0,0,1,.339,1.545c.46,5.5.9,10.992,1.344,16.487.284,3.486.589,6.97.864,10.457.37,4.694.717,9.389,1.078,14.084.3,3.889.608,7.778.9,11.668.062.8.1,1.612.123,2.418a13.842,13.842,0,0,1-1.941,7.713,16.074,16.074,0,0,0-1.155,2.125,6.308,6.308,0,0,0,1.436,7.4c.592.548,1.253,1.023,1.83,1.585a11.467,11.467,0,0,1,1.3,1.523,2.162,2.162,0,0,1-.238,2.94,11.076,11.076,0,0,1-2.233,1.688c-1.175.645-2.451,1.1-3.657,1.7a43.338,43.338,0,0,0-3.916,2.067,11.473,11.473,0,0,0-4.276,4.729,1.806,1.806,0,0,0,1.094,2.592,3.745,3.745,0,0,0,.367.167c2.34.609,4.665,1.3,7.031,1.782a20.5,20.5,0,0,0,4.016.253,12.659,12.659,0,0,1,4.345.779,3.316,3.316,0,0,1,2.143,3.121,9.034,9.034,0,0,1-.249,1.989,7.984,7.984,0,0,1-.817,2.271c-1.355,2.169-1.48,4.562-1.5,7a123.416,123.416,0,0,0,.738,16.92c.683,5.336,1.26,10.685,1.927,16.023A62.126,62.126,0,0,0,1449.628,283a102.2,102.2,0,0,0,10,19.761c.584.9,1.17,1.805,1.75,2.711a7.951,7.951,0,0,1,1.241,3.386c.262,2.332.581,2.47,2.755,2.462,1.749-.007,3.5-.038,5.247-.067a10.687,10.687,0,0,0,7.286-3.014,19.411,19.411,0,0,0,2.913-3.331c1.793-2.682,3.441-5.46,5.138-8.2a1.05,1.05,0,0,0-.412-1.386,14.41,14.41,0,0,0-4.823-1.969c-1.425-.386-2.9-.6-4.322-.991a15.447,15.447,0,0,1-3.005-1.124,2.462,2.462,0,0,1-1.355-2.315,2.063,2.063,0,0,1,1.587-2.05,8.941,8.941,0,0,1,1.6-.14,26.929,26.929,0,0,0,10.252-1.855c3.288-1.182,6.573-2.377,9.891-3.468,3.832-1.259,6.186-3.466,6.459-8.688a20.788,20.788,0,0,0-.024-2.42,6.393,6.393,0,0,0-4.156-5.919,34.588,34.588,0,0,0-3.457-1.088c-1.161-.339-2.361-.565-3.494-.979a5.425,5.425,0,0,1-3.638-3.994,1.662,1.662,0,0,1,.967-1.96c1.3-.329,2.614-.619,3.926-.913a39.827,39.827,0,0,0,9.132-3.127,26.618,26.618,0,0,0,12.859-13.4,34.351,34.351,0,0,0,2.5-8.07c.3-1.719.639-3.43,1-5.136.048-.226.315-.416.507-.6.221-.208.767-.066,1.054.257.178.2.352.405.525.61s.342.416.513.623a23.83,23.83,0,0,0,10.147,7.067,67.508,67.508,0,0,0,8.115,2.395c2.088.513,4.174,1.036,6.266,1.533a39.718,39.718,0,0,1,7.231,2.492q.552.25,1.115.472c1.525.6,2.485.154,3.143-1.479.25-.623.427-1.276.679-1.9a2.612,2.612,0,0,1,.453-.58c.2.159.523.28.592.484.3.887.51,1.8.782,2.7a20.653,20.653,0,0,0,8.78,11.683,40.912,40.912,0,0,0,5.271,2.954c4.285,1.941,8.616,3.783,12.968,5.568a19.36,19.36,0,0,0,3.145.586,1.384,1.384,0,0,1,1.031,1.123,2.783,2.783,0,0,1-1.285,3.122,11.108,11.108,0,0,1-4.552,1.531c-.93.134-1.88.135-2.811.266a4.442,4.442,0,0,0-4.1,3.847,19.018,19.018,0,0,0,.976,10.314,8.855,8.855,0,0,0,3.883,4.5,16,16,0,0,0,3.279,1.528c2.973.885,5.825,2.068,8.69,3.227.872.352,1.769.641,2.662.937a17.178,17.178,0,0,0,5.139.943,14.807,14.807,0,0,1,2.4.229,2.059,2.059,0,0,1,1.443,2.511,2.924,2.924,0,0,1-2.054,2.275,23.412,23.412,0,0,0-2.316.691,14.5,14.5,0,0,0-2.49,1.3,3.175,3.175,0,0,0-1.236,4.227,22.129,22.129,0,0,0,1.835,3.119,29.458,29.458,0,0,1,3.428,5.453,3.272,3.272,0,0,0,.409.693,30.839,30.839,0,0,0,4.978,5.24.442.442,0,0,0,.372.094c.215-.12.529-.28.563-.468a11.147,11.147,0,0,0,.183-2q-.03-16.349-.079-32.7a42.761,42.761,0,0,1,.132-4.431,4.354,4.354,0,0,1,3.9-4,27.864,27.864,0,0,1,3.623-.138q15.339.051,30.678.122a20.935,20.935,0,0,0,2.416-.115,4.119,4.119,0,0,0,3.636-3.289,15.744,15.744,0,0,0,.3-2.8,36.881,36.881,0,0,0-.541-7.637,28.151,28.151,0,0,1-.373-6.434,11.447,11.447,0,0,1,.49-2.759,6.464,6.464,0,0,1,4.785-4.479,17.112,17.112,0,0,1,6.8-.585c6.159.815,12.353.691,18.54.779,2.959.041,5.918.178,8.878.165,4.843-.022,9.685-.127,14.528-.208,1.614-.027,3.228-.11,4.842-.127a14.611,14.611,0,0,1,2.413.132,5.073,5.073,0,0,1,4.664,4.8,40.375,40.375,0,0,1,.194,4.835c-.022,11.033-.1,22.067-.1,33.1q-.024,42.59,0,85.178,0,13.322.064,26.643a35.026,35.026,0,0,1-.355,6.036,7.6,7.6,0,0,0-.068,1.6,2.918,2.918,0,0,0,2.113,2.674,3.949,3.949,0,0,0,.77.231c2.138.232,4.275.562,6.419.634a4.3,4.3,0,0,0,4.51-2.737,2.661,2.661,0,0,0-.065-2.335,12.1,12.1,0,0,0-1.061-1.7c-.489-.64-1.052-1.224-1.59-1.825a13,13,0,0,1-3.07-11.655,51.3,51.3,0,0,1,3.8-11.461,14.671,14.671,0,0,1,2.2-3.364,26.03,26.03,0,0,0,3.906-6.559q.721-1.664,1.566-3.271a2.337,2.337,0,0,1,1.475-1.289,33.153,33.153,0,0,1,9.209,7.7,15.653,15.653,0,0,1,3.3,7.26,20.794,20.794,0,0,0,1.059,3.874,2.855,2.855,0,0,0,2.067,1.774,2.813,2.813,0,0,0,3.516-2.407,21.393,21.393,0,0,0-.039-3.222,33.7,33.7,0,0,1,.035-6.043,26.958,26.958,0,0,0,.057-4.029,11.075,11.075,0,0,0-4.991-8.794,15.863,15.863,0,0,0-4.713-2.244c-1.033-.3-2.1-.51-3.1-.885a3.491,3.491,0,0,1-2.41-2.474c.174-.21.294-.482.5-.585a2.579,2.579,0,0,0,1.525-2.613c-.2-4.38,1.173-3.839,4.26-2.665a17.814,17.814,0,0,0,2.308.694,11.575,11.575,0,0,0,11.118-3.193,10.658,10.658,0,0,0,2.821-3.892,2.685,2.685,0,0,1,2.807-1.835,16.646,16.646,0,0,0,2.41-.219,9.769,9.769,0,0,0,5.974-3.08c1.072-1.2,2.1-2.453,3.154-3.673.616-.71,1.223-1.431,1.887-2.1a2.648,2.648,0,0,1,3-.39,10.861,10.861,0,0,1,1.934,1.433c3.395,3.29,7.566,4.483,12.153,4.568a26.1,26.1,0,0,0,3.226-.09,75.806,75.806,0,0,1,8.859-.518,6.606,6.606,0,0,0,3.09-.807,3.147,3.147,0,0,0,1.851-2.017c.776-3.374,3.051-5.6,5.641-7.616,1.377-1.075,2.7-2.222,4.037-3.345.887-.743,1.467-.582,1.7.465.316,1.443.591,2.9,1,4.316a14.744,14.744,0,0,0,2.3,4.687,10.258,10.258,0,0,0,8.189,4.465,17.468,17.468,0,0,0,7.5-1.283c1.611-.669,3.16-1.488,4.733-2.249.605-.292,1.188-.628,1.8-.914a2.452,2.452,0,0,1,3.456.994c.6.893,1.112,1.841,1.655,2.77a13.4,13.4,0,0,0,2.494,3.154,7.138,7.138,0,0,0,7.442,1.79c.384-.124.753-.294,1.14-.4,1.131-.323,1.519-.129,2.052.69a15.373,15.373,0,0,0,5.067,4.535,13.749,13.749,0,0,0,3.324,1.424,9.588,9.588,0,0,0,5.95.028c1.144-.382,2.271-.818,3.4-1.254,1.324-.513,2.024-1.709,2.909-2.7a1.365,1.365,0,0,1,1.5-.174c.836.668,1.65,1.364,2.563,2.124.146.883.253,1.807.458,2.709s.562,1.8.768,2.714a5.53,5.53,0,0,1-2.918,6.416,2.665,2.665,0,0,0-1.549,2.148c-.088.667-.167,1.335-.271,2a7.215,7.215,0,0,0,.682,4.3c.8,1.7,1.46,3.469,2.179,5.208a12.894,12.894,0,0,0,2.307,3.767,7.423,7.423,0,0,0,3.669,2.363c.49.127,1.251-.221,1.268-.686.088-2.349,1.207-4.385,1.948-6.534a8.977,8.977,0,0,1,.688-1.454c.914-1.626,2.289-2.487,4.823-1.8a2.577,2.577,0,0,1,1.556,1.213,11.9,11.9,0,0,1,1.348,2.91c.855,3.4,2.163,6.647,3.223,9.976a54.293,54.293,0,0,1,1.555,5.842,14.417,14.417,0,0,1-4.352,13.977,3.956,3.956,0,0,1-.592.547c-2.083,1.3-2.648,3.278-2.547,5.568.024.538.036,1.076.069,1.612a1.355,1.355,0,0,0,1.271,1.313c1.195.194,2.4.319,3.585.577a11.476,11.476,0,0,1,2.259.805,2.757,2.757,0,0,1,1.515,1.782c.235.759.566,1.488.855,2.23v.808a22.62,22.62,0,0,0-.744,2.246,4.869,4.869,0,0,1-.871,1.791H0Zm1168.663-.488q9.883,0,19.769,0c1.21,0,2.422,0,3.628-.074a1.7,1.7,0,0,0,1.005-.466c.355-.353.056-.765-.177-1.066a30.636,30.636,0,0,0-5.819-5.556,29.8,29.8,0,0,0-18-6.13,35.751,35.751,0,0,0-8.8.959,24,24,0,0,0-14.982,10.159,9.048,9.048,0,0,0-.545,1.071c-.127.257.245.918.539.936.934.058,1.868.16,2.8.162Q1158.375,411.54,1168.663,411.527Zm-60.368,0h18.941c.94,0,1.88,0,2.821-.008.4,0,.8-.04,1.2-.071a.911.911,0,0,0,.626-1.484,26.643,26.643,0,0,0-11.3-9.424,27.1,27.1,0,0,0-18.893-1.191,35.927,35.927,0,0,0-17.133,10.82.872.872,0,0,0-.147.716.8.8,0,0,0,.518.5,20.759,20.759,0,0,0,2.4.14Q1097.817,411.535,1108.3,411.527Z"/>
    </g>
  </g>
</svg>
